# xmcd
#
# Track frame offsets:
# 150
# 13379
# 30171
# 45938
# 59599
# 72909
# 88622
# 103795
# 119454
# 133871
# 147748
# 164270
# 177418
# 195543
# 210068
# 224458
# 238740
# 250620
# 265982
# 277852
#
# Disc length: 3907 seconds
#
#
# Revision: 0
# Processed by: cddbd v1.5.2PL0 Copyright (c) Steve Scherf et al.
# Submitted via: FreeRIP 2.945 
#
DISCID=250f4114
DTITLE=Joao Mineiro e Marciano - as 20 mais joao mineiro e marciano
DYEAR=1900
DGENRE=Country
TTITLE0=amor e amizade
TTITLE1=seu amor ainda é tudo
TTITLE2=amantes e amigos
TTITLE3=crises de amor
TTITLE4=pare com isso
TTITLE5=as paredes azuis
TTITLE6=no mesmo lugar
TTITLE7=caminhão é assim mesmo
TTITLE8=a bailarina
TTITLE9=aline
TTITLE10=se eu não puder te esquecer
TTITLE11=telefone mais
TTITLE12=milagre da flecha
TTITLE13=benzadeus
TTITLE14=meu desespero
TTITLE15=a pretendida
TTITLE16=whisky com gelo
TTITLE17=tudo passará
TTITLE18=vestido de noiva
TTITLE19=viola esta chorando
EXTD=
EXTT0=
EXTT1=
EXTT2=
EXTT3=
EXTT4=
EXTT5=
EXTT6=
EXTT7=
EXTT8=
EXTT9=
EXTT10=
EXTT11=
EXTT12=
EXTT13=
EXTT14=
EXTT15=
EXTT16=
EXTT17=
EXTT18=
EXTT19=
PLAYORDER=
